#Comment line ignore any data following # character 
#Hierarchical Translation and Rotation (.htr) file 
[Header]	
#Header keywords are followed by a single value 
FileType HTR		#Single word string
DataType HTRS		#Translation followed by rotation and scale data
FileVersion 1		#integer
NumSegments 64		#integer
NumFrames 3		#integer
DataFrameRate 30		#integer, data frame rate in this file
EulerRotationOrder ZYX
CalibrationUnits mm
RotationUnits Degrees
GlobalAxisofGravity Y
BoneLengthAxis Y
ScaleFactor 1.00
[SegmentNames&Hierarchy]
#CHILD	PARENT
Pinger_Root GLOBAL
Pelvis Pinger_Root
L_Hip Pelvis
R_Hip Pelvis
Rear_Leg01 Pelvis
Spine1 Pelvis
L_Leg01 L_Hip
L_Leg02 L_Leg01
L_Leg03 L_Leg02
L_Foot L_Leg03
L_Toe1_01 L_Foot
L_Toe2_01 L_Foot
L_Toe3_01 L_Foot
planeAlignerLeft L_Foot
L_Toe1_02 L_Toe1_01
L_Toe1_03 L_Toe1_02
L_Toe2_02 L_Toe2_01
L_Toe2_03 L_Toe2_02
L_Toe3_02 L_Toe3_01
L_Toe3_03 L_Toe3_02
planeLockWeightLeft planeAlignerLeft
R_Leg01 R_Hip
R_Leg02 R_Leg01
R_Leg03 R_Leg02
R_Foot R_Leg03
planeAlignerRight R_Foot
R_Toe1_01 R_Foot
R_Toe2_01 R_Foot
R_Toe3_01 R_Foot
planeLockWeightRight planeAlignerRight
R_Toe1_02 R_Toe1_01
R_Toe1_03 R_Toe1_02
R_Toe2_02 R_Toe2_01
R_Toe2_03 R_Toe2_02
R_Toe3_02 R_Toe3_01
R_Toe3_03 R_Toe3_02
Rear_Leg02 Rear_Leg01
Rear_Leg03 Rear_Leg02
Rear_Leg04 Rear_Leg03
Rear_Foot Rear_Leg04
planeAlignerCenter Rear_Foot
Rear_Toe1_01 Rear_Foot
Rear_Toe2_01 Rear_Foot
Rear_Toe3_01 Rear_Foot
planeLockWeightCenter planeAlignerCenter
Rear_Toe1_02 Rear_Toe1_01
Rear_Toe1_03 Rear_Toe1_02
Rear_Toe2_02 Rear_Toe2_01
Rear_Toe2_03 Rear_Toe2_02
Rear_Toe3_02 Rear_Toe3_01
Rear_Toe3_03 Rear_Toe3_02
Back_Bone Spine1
Head Spine1
Motor_Bone Back_Bone
Ping_Mechanism Back_Bone
BN_LookIK Head
bottomMouth Head
L_Mouth01 Head
L_mouthFront Head
mouthGun Head
R_Mouth01 Head
R_mouthFront Head
TopMouth Head
weapon_bone Head
[BasePosition]
#SegmentName Tx, Ty, Tz, Rx, Ry, Rz, BoneLength
Pinger_Root 0.000000 0.000000 0.000000 -90.000000 0.000000 0.000000 10.000000 
Pelvis 0.000000 0.000000 0.000000 0.000000 0.000000 0.000000 10.000000 
L_Hip 0.000000 0.000000 0.000000 0.000000 0.000000 0.000000 10.000000 
R_Hip 0.000000 0.000000 0.000000 0.000000 0.000000 0.000000 10.000000 
Rear_Leg01 0.000000 0.000000 0.000000 0.000000 0.000000 0.000000 10.000000 
Spine1 0.000000 0.000000 0.000000 0.000000 0.000000 0.000000 10.000000 
L_Leg01 0.000000 0.000000 0.000000 0.000000 0.000000 0.000000 10.000000 
L_Leg02 0.000000 0.000000 0.000000 0.000000 0.000000 0.000000 10.000000 
L_Leg03 0.000000 0.000000 0.000000 0.000000 0.000000 0.000000 10.000000 
L_Foot 0.000000 0.000000 0.000000 0.000000 0.000000 0.000000 10.000000 
L_Toe1_01 0.000000 0.000000 0.000000 0.000000 0.000000 0.000000 10.000000 
L_Toe2_01 0.000000 0.000000 0.000000 0.000000 0.000000 0.000000 10.000000 
L_Toe3_01 0.000000 0.000000 0.000000 0.000000 0.000000 0.000000 10.000000 
planeAlignerLeft 0.000000 0.000000 0.000000 0.000000 0.000000 0.000000 10.000000 
L_Toe1_02 0.000000 0.000000 0.000000 0.000000 0.000000 0.000000 10.000000 
L_Toe1_03 0.000000 0.000000 0.000000 0.000000 0.000000 0.000000 10.000000 
L_Toe2_02 0.000000 0.000000 0.000000 0.000000 0.000000 0.000000 10.000000 
L_Toe2_03 0.000000 0.000000 0.000000 0.000000 0.000000 0.000000 10.000000 
L_Toe3_02 0.000000 0.000000 0.000000 0.000000 0.000000 0.000000 10.000000 
L_Toe3_03 0.000000 0.000000 0.000000 0.000000 0.000000 0.000000 10.000000 
planeLockWeightLeft 0.000000 0.000000 0.000000 0.000000 0.000000 0.000000 10.000000 
R_Leg01 0.000000 0.000000 0.000000 0.000000 0.000000 0.000000 10.000000 
R_Leg02 0.000000 0.000000 0.000000 0.000000 0.000000 0.000000 10.000000 
R_Leg03 0.000000 0.000000 0.000000 0.000000 0.000000 0.000000 10.000000 
R_Foot 0.000000 0.000000 0.000000 0.000000 0.000000 0.000000 10.000000 
planeAlignerRight 0.000000 0.000000 0.000000 0.000000 0.000000 0.000000 10.000000 
R_Toe1_01 0.000000 0.000000 0.000000 0.000000 0.000000 0.000000 10.000000 
R_Toe2_01 0.000000 0.000000 0.000000 0.000000 0.000000 0.000000 10.000000 
R_Toe3_01 0.000000 0.000000 0.000000 0.000000 0.000000 0.000000 10.000000 
planeLockWeightRight 0.000000 0.000000 0.000000 0.000000 0.000000 0.000000 10.000000 
R_Toe1_02 0.000000 0.000000 0.000000 0.000000 0.000000 0.000000 10.000000 
R_Toe1_03 0.000000 0.000000 0.000000 0.000000 0.000000 0.000000 10.000000 
R_Toe2_02 0.000000 0.000000 0.000000 0.000000 0.000000 0.000000 10.000000 
R_Toe2_03 0.000000 0.000000 0.000000 0.000000 0.000000 0.000000 10.000000 
R_Toe3_02 0.000000 0.000000 0.000000 0.000000 0.000000 0.000000 10.000000 
R_Toe3_03 0.000000 0.000000 0.000000 0.000000 0.000000 0.000000 10.000000 
Rear_Leg02 0.000000 0.000000 0.000000 0.000000 0.000000 0.000000 10.000000 
Rear_Leg03 0.000000 0.000000 0.000000 0.000000 0.000000 0.000000 10.000000 
Rear_Leg04 0.000000 0.000000 0.000000 0.000000 0.000000 0.000000 10.000000 
Rear_Foot 0.000000 0.000000 0.000000 0.000000 0.000000 0.000000 10.000000 
planeAlignerCenter 0.000000 0.000000 0.000000 0.000000 0.000000 0.000000 10.000000 
Rear_Toe1_01 0.000000 0.000000 0.000000 0.000000 0.000000 0.000000 10.000000 
Rear_Toe2_01 0.000000 0.000000 0.000000 0.000000 0.000000 0.000000 10.000000 
Rear_Toe3_01 0.000000 0.000000 0.000000 0.000000 0.000000 0.000000 10.000000 
planeLockWeightCenter 0.000000 0.000000 0.000000 0.000000 0.000000 0.000000 10.000000 
Rear_Toe1_02 0.000000 0.000000 0.000000 0.000000 0.000000 0.000000 10.000000 
Rear_Toe1_03 0.000000 0.000000 0.000000 0.000000 0.000000 0.000000 10.000000 
Rear_Toe2_02 0.000000 0.000000 0.000000 0.000000 0.000000 0.000000 10.000000 
Rear_Toe2_03 0.000000 0.000000 0.000000 0.000000 0.000000 0.000000 10.000000 
Rear_Toe3_02 0.000000 0.000000 0.000000 0.000000 0.000000 0.000000 10.000000 
Rear_Toe3_03 0.000000 0.000000 0.000000 0.000000 0.000000 0.000000 10.000000 
Back_Bone 0.000000 0.000000 0.000000 0.000000 0.000000 0.000000 10.000000 
Head 0.000000 0.000000 0.000000 0.000000 0.000000 0.000000 10.000000 
Motor_Bone 0.000000 0.000000 0.000000 0.000000 0.000000 0.000000 10.000000 
Ping_Mechanism 0.000000 0.000000 0.000000 0.000000 0.000000 0.000000 10.000000 
BN_LookIK 0.000000 0.000000 0.000000 0.000000 0.000000 0.000000 10.000000 
bottomMouth 0.000000 0.000000 0.000000 0.000000 0.000000 0.000000 10.000000 
L_Mouth01 0.000000 0.000000 0.000000 0.000000 0.000000 0.000000 10.000000 
L_mouthFront 0.000000 0.000000 0.000000 0.000000 0.000000 0.000000 10.000000 
mouthGun 0.000000 0.000000 0.000000 0.000000 0.000000 0.000000 10.000000 
R_Mouth01 0.000000 0.000000 0.000000 0.000000 0.000000 0.000000 10.000000 
R_mouthFront 0.000000 0.000000 0.000000 0.000000 0.000000 0.000000 10.000000 
TopMouth 0.000000 0.000000 0.000000 0.000000 0.000000 0.000000 10.000000 
weapon_bone 0.000000 0.000000 0.000000 0.000000 0.000000 0.000000 10.000000 
#Beginning of Data. Separated by tabs
#Fr	Tx	Ty	Tz	Rx	Ry	Rz	SF
[Pinger_Root]
18 0.000000 0.000000 0.000000 -0.000076 -0.000011 -16.105219 0.000000
19 0.000000 0.000000 0.000000 -0.000075 -0.000012 -18.436262 0.000000
20 0.000000 0.000000 0.000000 -0.000075 -0.000014 -20.769234 0.000000
[Pelvis]
18 -679.763611 947.657837 4375.856445 148.277390 -73.348106 -174.380112 4528.604004
19 -701.435303 845.796692 4391.231445 145.576477 -73.292114 -172.425491 4526.621094
20 -701.687134 744.004761 4406.971680 144.154495 -73.791481 -171.884109 4524.080566
[L_Hip]
18 5.766392 125.831482 872.656799 135.733139 -73.464233 150.462463 881.701050
19 5.766392 125.831482 872.656799 135.298492 -74.074295 150.922668 881.701050
20 5.766392 125.831482 872.656799 136.442322 -74.062881 149.715836 881.701050
[R_Hip]
18 5.765438 125.836372 -872.654907 57.621742 71.112587 149.946304 881.699829
19 5.765438 125.836372 -872.654907 46.426952 69.557144 138.244919 881.699829
20 5.765438 125.836372 -872.654907 39.125927 66.812378 130.174271 881.699829
[Rear_Leg01]
18 -192.298416 -925.602966 -0.001907 141.007584 15.740764 -160.839783 945.367432
19 -192.298416 -925.602966 -0.001907 139.525452 16.740582 -163.213501 945.367432
20 -192.298416 -925.602966 -0.001907 138.186218 18.817076 -164.986755 945.367432
[Spine1]
18 290.604584 5.007505 0.000477 3.206134 21.437199 35.233036 290.647736
19 290.604584 5.007505 0.000477 2.299711 21.210768 36.214203 290.647736
20 290.604584 5.007505 0.000477 1.182064 20.736383 36.531952 290.647736
[L_Leg01]
18 761.932007 -0.002384 -0.069261 29.063381 0.291436 -21.045832 761.932068
19 761.932007 -0.002384 -0.069261 31.974857 -1.364405 -18.961533 761.932068
20 761.932007 -0.002384 -0.069261 33.677635 -2.151702 -17.574415 761.932068
[L_Leg02]
18 1441.140503 -0.000954 -0.000715 5.990542 1.225708 -138.136871 1441.140503
19 1441.140503 -0.000954 -0.000715 5.701512 0.873712 -140.587738 1441.140503
20 1441.140503 -0.000954 -0.000715 5.175101 0.470171 -141.003372 1441.140503
[L_Leg03]
18 1686.963989 -0.000715 -0.000954 -0.089820 0.051462 134.085388 1686.963989
19 1686.963989 -0.000715 -0.000954 -0.077928 0.044369 131.364410 1686.963989
20 1686.963989 -0.000715 -0.000954 -0.064982 0.035189 127.797852 1686.963989
[L_Foot]
18 3041.570068 -30.715107 11.297464 -0.381258 16.012602 61.837357 3041.746094
19 3041.570068 -30.715107 11.297464 -1.614393 20.560535 63.804234 3041.746094
20 3041.570068 -30.715107 11.297464 -3.383630 24.741766 64.228844 3041.746094
[L_Toe1_01]
18 -188.216690 -224.732346 -21.137953 93.975807 -6.861342 -173.167282 293.899567
19 -188.216690 -224.732346 -21.137953 93.816887 -6.864770 -172.380264 293.899567
20 -188.216690 -224.732346 -21.137953 93.719086 -6.862507 -171.970444 293.899567
[L_Toe2_01]
18 200.746536 -219.926590 148.838394 -91.538986 -27.237917 -46.527111 332.896027
19 200.746536 -219.926590 148.838394 -90.518059 -26.625689 -50.640694 332.896027
20 200.746536 -219.926590 148.838394 -90.023987 -26.311703 -52.677628 332.896027
[L_Toe3_01]
18 188.832520 -219.859131 -191.078659 -99.102226 14.927423 -61.000938 347.140900
19 188.832520 -219.859131 -191.078659 -99.584526 14.193170 -65.510178 347.140900
20 188.832520 -219.859131 -191.078659 -99.788055 13.839008 -67.673027 347.140900
[planeAlignerLeft]
18 51.483742 -540.750854 101.096268 169.291382 -76.301163 91.751213 552.523804
19 39.619446 -575.903320 101.090309 169.303726 -76.300285 90.631432 586.049072
20 32.990719 -593.020996 101.088562 169.306686 -76.298271 89.968506 602.479126
[L_Toe1_02]
18 413.761139 0.000477 0.000000 0.001384 -25.926655 0.001384 413.761139
19 413.761139 0.000477 0.000000 0.001384 -25.921583 0.001384 413.761139
20 413.761139 0.000477 0.000000 0.001385 -25.916506 0.001385 413.761139
[L_Toe1_03]
18 464.317322 0.000358 -0.000089 0.004110 56.817551 0.004110 464.317322
19 464.317322 0.000358 -0.000089 0.003859 54.591240 0.003859 464.317322
20 464.317322 0.000358 -0.000089 0.003734 53.359097 0.003734 464.317322
[L_Toe2_02]
18 342.235809 -0.000477 0.000238 0.001185 -73.826736 0.001185 342.235809
19 342.235809 -0.000477 0.000238 0.001187 -72.960724 0.001187 342.235809
20 342.235809 -0.000477 0.000238 0.001188 -72.402016 0.001188 342.235809
[L_Toe2_03]
18 420.210846 -0.000715 0.000000 0.000000 89.745895 0.003494 420.210846
19 420.210846 -0.000715 0.000000 -0.022942 86.891907 -0.019444 420.210846
20 420.210846 -0.000715 0.000000 0.029090 85.375511 0.029090 420.210846
[L_Toe3_02]
18 329.270111 0.000954 0.000000 0.001177 -81.847008 0.001177 329.270111
19 329.270111 0.000954 0.000000 0.001177 -81.163712 0.001177 329.270111
20 329.270111 0.000954 0.000000 0.001178 -80.480331 0.001178 329.270111
[L_Toe3_03]
18 439.137451 -0.001907 0.000954 -179.998047 72.271339 -179.994507 439.137451
19 439.137451 -0.001907 0.000954 -179.996887 76.455452 -179.993362 439.137451
20 439.137451 -0.001907 0.000954 -179.995956 78.605698 -179.992447 439.137451
[planeLockWeightLeft]
18 999.999146 0.098267 0.076151 -0.011826 -0.004376 0.005620 999.999146
19 999.999084 0.098267 0.076151 -0.011826 -0.004376 0.005620 999.999084
20 999.999084 0.098267 0.076150 -0.011826 -0.004376 0.005620 999.999084
[R_Leg01]
18 761.455627 -0.001907 -0.000358 138.144196 -15.623120 42.729370 761.455688
19 761.455627 -0.001907 -0.000358 136.536514 0.635066 48.348736 761.455688
20 761.455627 -0.001907 -0.000358 134.856766 12.776233 58.612598 761.455688
[R_Leg02]
18 1441.140625 0.000000 -0.000238 6.341232 -1.121727 -128.416580 1441.140625
19 1441.140625 0.000000 -0.000238 4.596109 -0.727016 -113.752861 1441.140625
20 1441.140625 0.000000 -0.000238 9.338543 -1.757664 -92.400467 1441.140625
[R_Leg03]
18 1686.963989 0.000954 0.001431 0.011820 -0.006108 114.176537 1686.963989
19 1686.963989 0.000954 0.001431 0.018620 -0.007667 114.758789 1686.963989
20 1686.963989 0.000954 0.001431 0.009163 -0.001811 112.358543 1686.963989
[R_Foot]
18 3041.560059 -30.531288 -11.204481 17.500175 -44.837158 75.644676 3041.734131
19 3041.560059 -30.531288 -11.204481 13.045872 -50.555840 65.515259 3041.734131
20 3041.560059 -30.531288 -11.204481 17.560965 -49.172096 43.735683 3041.734131
[planeAlignerRight]
18 -244.517654 -617.929443 -74.272408 -101.854897 -56.579704 -8.318399 668.686829
19 -232.915634 -672.251709 -116.146545 -91.970535 -61.066231 -16.855209 720.875916
20 -176.332703 -756.906006 -212.086777 -65.961716 -68.646561 -38.508720 805.593445
[R_Toe1_01]
18 -188.383347 -224.864899 21.052242 87.233871 -36.887535 -169.044525 294.101532
19 -188.383347 -224.864899 21.052242 82.999397 -29.560616 -165.657806 294.101532
20 -188.383347 -224.864899 21.052242 78.785881 -13.688564 -160.241470 294.101532
[R_Toe2_01]
18 200.637817 -220.002121 -148.787384 -138.489929 14.949375 -117.533867 332.857574
19 200.637817 -220.002121 -148.787384 -132.476257 19.206621 -111.553177 332.857574
20 200.637817 -220.002121 -148.787384 -116.796303 24.325214 -96.118874 332.857574
[R_Toe3_01]
18 188.606735 -220.092957 191.126343 -111.908356 11.054749 -95.895798 347.192566
19 188.606735 -220.092957 191.126343 -95.850693 13.109338 -95.180908 347.192566
20 188.606735 -220.092957 191.126343 -75.242500 12.894237 -90.654167 347.192566
[planeLockWeightRight]
18 -0.000083 -0.000458 0.076447 -0.011823 -0.004379 -0.000027 0.076448
19 156.249680 -0.000305 0.076408 -0.011823 -0.004379 -0.000027 156.249710
20 499.999512 -0.000305 0.076199 -0.011823 -0.004379 -0.000027 499.999512
[R_Toe1_02]
18 413.762085 0.000477 -0.000119 0.001466 -16.354792 0.001466 413.762085
19 413.762085 0.000477 -0.000119 0.001466 -16.327309 0.001466 413.762085
20 413.762085 0.000477 -0.000119 0.001467 -16.299829 0.001467 413.762085
[R_Toe1_03]
18 464.317810 0.000000 0.001088 -179.996384 77.732811 -179.992859 464.317810
19 464.317810 0.000000 0.001088 -179.996582 77.257210 -179.993073 464.317810
20 464.317810 0.000000 0.001088 -179.996460 77.574097 -179.992935 464.317810
[R_Toe2_02]
18 342.234741 -0.000954 0.000238 -0.013194 -74.065681 0.012033 342.234741
19 342.234741 -0.000954 0.000238 -0.008225 -75.148361 0.005303 342.234741
20 342.234741 -0.000954 0.000238 -0.002340 -76.231018 -0.002340 342.234741
[R_Toe2_03]
18 420.210846 0.000715 -0.000268 0.000000 89.827538 -0.003495 420.210846
19 420.210846 0.000715 -0.000268 -179.979630 86.463486 -179.983124 420.210846
20 420.210846 0.000715 -0.000268 -179.989334 82.600578 -179.992844 420.210846
[R_Toe3_02]
18 329.270355 -0.000477 -0.000954 0.001178 -80.208488 0.001178 329.270355
19 329.270355 -0.000477 -0.000954 0.001178 -79.616211 0.001178 329.270355
20 329.270355 -0.000477 -0.000954 0.001179 -79.023865 0.001179 329.270355
[R_Toe3_03]
18 439.137939 0.000238 0.001431 -179.995438 79.587029 -179.991913 439.137939
19 439.137939 0.000238 0.001431 -179.994202 81.270981 -179.990692 439.137939
20 439.137939 0.000238 0.001431 -179.991074 83.830833 -179.987579 439.137939
[Rear_Leg02]
18 1162.777710 -0.029802 0.005960 -0.141354 -2.985339 -108.970284 1162.777710
19 1162.777710 -0.029802 0.005960 -0.111629 -2.985794 -110.320404 1162.777710
20 1162.777710 -0.029802 0.005960 -0.048903 -2.991193 -110.098785 1162.777710
[Rear_Leg03]
18 607.192505 -0.013351 -0.073195 0.006577 -0.001765 58.261951 607.192505
19 607.192505 -0.013351 -0.073195 0.006571 -0.001791 58.698856 607.192505
20 607.192505 -0.013351 -0.073195 0.006564 -0.001816 59.135746 607.192505
[Rear_Leg04]
18 995.874512 -0.020504 -0.011921 -0.036871 -0.014507 47.044876 995.874573
19 995.874512 -0.020504 -0.011921 -0.038934 -0.018858 47.584827 995.874573
20 995.874512 -0.020504 -0.011921 -0.039096 -0.018521 48.575840 995.874573
[Rear_Foot]
18 3096.176270 -0.067472 -0.041425 -42.636501 86.442177 155.961792 3096.176270
19 3096.176270 -0.067472 -0.041425 -27.523619 84.727982 170.217010 3096.176270
20 3096.176270 -0.067472 -0.041425 -21.403885 83.197784 174.755402 3096.176270
[planeAlignerCenter]
18 123.403244 -14.905395 -657.817322 13.433193 10.319284 -173.296234 669.458130
19 119.738258 -14.903411 -658.497314 13.690661 9.925912 -171.574524 669.461060
20 116.073265 -14.901427 -659.177307 13.935719 9.525105 -169.856659 669.484741
[Rear_Toe1_01]
18 0.653352 83.966492 -371.173737 -14.159627 34.220451 86.481117 380.553192
19 0.653352 83.966492 -371.173737 -13.574568 34.532738 88.701370 380.553192
20 0.653352 83.966492 -371.173737 -12.973063 34.826023 90.933525 380.553192
[Rear_Toe2_01]
18 178.200760 -294.826019 -362.060547 1.414412 20.608898 -51.006584 499.765686
19 178.200760 -294.826019 -362.060547 0.910807 20.559891 -49.143436 499.765686
20 178.200760 -294.826019 -362.060547 0.405901 20.526237 -47.280399 499.765686
[Rear_Toe3_01]
18 -153.359680 -308.780914 -362.060852 16.368330 31.190435 -94.047630 499.952881
19 -153.359680 -308.780914 -362.060852 16.025585 30.648592 -92.157074 499.952881
20 -153.359680 -308.780914 -362.060852 15.664240 30.116718 -90.273140 499.952881
[planeLockWeightCenter]
18 1000.000122 0.000000 0.076381 -0.011814 -0.004373 -0.000015 1000.000122
19 1000.000244 0.000000 0.076387 -0.011814 -0.004373 -0.000015 1000.000244
20 1000.000244 0.000000 0.076393 -0.011814 -0.004373 -0.000015 1000.000244
[Rear_Toe1_02]
18 379.707825 0.194073 0.000477 0.001332 -33.565891 0.001332 379.707855
19 379.707825 0.194073 0.000477 0.001332 -33.565372 0.001332 379.707855
20 379.707825 0.194073 0.000477 0.001332 -33.564854 0.001332 379.707855
[Rear_Toe1_03]
18 500.129700 0.165701 0.000119 -0.004792 67.993614 -0.001230 500.129761
19 500.129700 0.165701 0.000119 -0.004835 68.310112 -0.001274 500.129761
20 500.129700 0.165701 0.000119 -0.004879 68.626549 -0.001320 500.129761
[Rear_Toe2_02]
18 340.494507 0.000238 -0.000954 0.001197 -67.301003 0.001197 340.494507
19 340.494507 0.000238 -0.000954 0.001198 -66.994316 0.001198 340.494507
20 340.494507 0.000238 -0.000954 0.001198 -66.687614 0.001198 340.494507
[Rear_Toe2_03]
18 433.103577 0.000000 0.000238 0.005640 65.977325 0.005640 433.103546
19 433.103577 0.000000 0.000238 0.005533 65.505615 0.005533 433.103546
20 433.103577 0.000000 0.000238 0.005445 65.106163 0.005445 433.103546
[Rear_Toe3_02]
18 340.494141 -0.000358 -0.000477 0.001191 -70.277596 0.001191 340.494171
19 340.494141 -0.000358 -0.000477 0.001192 -69.671875 0.001192 340.494171
20 340.494141 -0.000358 -0.000477 0.001193 -69.066193 0.001193 340.494171
[Rear_Toe3_03]
18 433.103577 0.001431 -0.000238 0.006979 70.638603 0.006979 433.103546
19 433.103577 0.001431 -0.000238 0.006638 69.632591 0.006638 433.103546
20 433.103577 0.001431 -0.000238 0.006329 68.626549 0.006329 433.103546
[Back_Bone]
18 1312.175781 -701.934692 0.000954 0.000023 -0.000007 -85.606667 1488.125488
19 1312.175781 -701.934692 0.000954 0.000023 -0.000007 -85.606667 1488.125488
20 1312.175781 -701.934692 0.000954 0.000023 -0.000007 -85.606667 1488.125488
[Head]
18 1406.159424 809.709290 0.001431 0.000008 0.000003 7.767519 1622.625488
19 1406.159424 809.709290 0.001431 0.000008 0.000003 7.767519 1622.625488
20 1406.159424 809.709290 0.001431 0.000008 0.000003 7.767519 1622.625488
[Motor_Bone]
18 1158.364380 -417.834747 0.000477 -0.069597 6.970061 -105.504601 1231.419434
19 1158.364380 -417.834747 0.000477 -0.085735 3.046978 -105.738487 1231.419434
20 1158.364380 -417.834747 0.000477 -0.095385 0.076104 -105.915703 1231.419434
[Ping_Mechanism]
18 1180.260986 -393.416870 -66.736519 0.000103 -0.000053 82.120995 1245.891968
19 1176.072998 -390.804138 -64.484406 0.000103 -0.000053 82.120995 1240.980957
20 1174.914185 -391.249084 -60.422974 0.000103 -0.000053 82.120995 1239.818604
[BN_LookIK]
18 193.241119 1380.371704 -0.002861 0.000000 89.965736 -31.038179 1393.832153
19 193.241119 1380.371704 -0.002861 0.000000 89.965736 -31.038179 1393.832153
20 193.241119 1380.371704 -0.002861 0.000000 89.965736 -31.038179 1393.832153
[bottomMouth]
18 -435.092926 615.759399 -0.000954 -0.000022 0.000016 73.527184 753.966492
19 -435.092926 615.759399 -0.000954 -0.000022 0.000016 73.527184 753.966492
20 -435.092926 615.759399 -0.000954 -0.000022 0.000016 73.527184 753.966492
[L_Mouth01]
18 554.440979 7.658243 838.222046 150.204178 23.759130 109.605339 1005.027161
19 554.440979 7.658243 838.222046 150.204178 23.759130 109.605339 1005.027161
20 554.440979 7.658243 838.222046 150.204178 23.759130 109.605339 1005.027161
[L_mouthFront]
18 551.629089 934.514771 339.150421 0.000081 2.804060 79.119301 1136.941284
19 551.629089 934.514771 339.150421 0.000081 2.804060 79.119301 1136.941284
20 551.629089 934.514771 339.150421 0.000081 2.804060 79.119301 1136.941284
[mouthGun]
18 55.332661 1627.420898 0.000000 0.000023 0.000009 -11.038128 1628.361328
19 55.332661 1627.420898 0.000000 0.000023 0.000009 -11.038128 1628.361328
20 55.332661 1627.420898 0.000000 0.000023 0.000009 -11.038128 1628.361328
[R_Mouth01]
18 554.442383 7.659197 -838.223938 29.795891 -23.759109 109.605331 1005.029541
19 554.442383 7.659197 -838.223938 29.795891 -23.759109 109.605331 1005.029541
20 554.442383 7.659197 -838.223938 29.795891 -23.759109 109.605331 1005.029541
[R_mouthFront]
18 551.629089 934.514282 -339.151367 0.000029 -2.803930 79.119133 1136.941162
19 551.629089 934.514282 -339.151367 0.000029 -2.803930 79.119133 1136.941162
20 551.629089 934.514282 -339.151367 0.000029 -2.803930 79.119133 1136.941162
[TopMouth]
18 461.269867 -56.106091 -0.008583 -0.000059 -0.000268 92.025169 464.669525
19 461.269867 -56.106091 -0.008583 -0.000059 -0.000268 92.025169 464.669525
20 461.269867 -56.106091 -0.008583 -0.000059 -0.000268 92.025169 464.669525
[weapon_bone]
18 -987.239868 1448.372803 0.001431 0.000000 89.965736 -31.038221 1752.833740
19 -987.239868 1448.372803 0.001431 0.000000 89.965736 -31.038221 1752.833740
20 -987.239868 1448.372803 0.001431 0.000000 89.965736 -31.038221 1752.833740
